<svg id="Capa_1" enable-background="new 0 0 511.99 511.99" height="512" viewBox="0 0 511.99 511.99" width="512" xmlns="http://www.w3.org/2000/svg"><g><g><path d="m410.891 162.392c0-85.55-69.346-154.896-154.896-154.896s-154.896 69.345-154.896 154.896c0 75.464 53.961 138.302 125.406 152.077v45.574h-23.722c-16.284 0-29.49 13.205-29.49 29.49s13.205 29.49 29.49 29.49h23.722v55.981c0 16.284 13.205 29.49 29.49 29.49 8.137 0 15.515-3.299 20.853-8.637s8.637-12.706 8.637-20.853v-55.981h23.722c16.284 0 29.49-13.205 29.49-29.49s-13.205-29.49-29.49-29.49h-23.722v-45.574c71.445-13.775 125.406-76.614 125.406-152.077zm-154.896 103.384c-57.1 0-103.384-46.284-103.384-103.384s46.284-103.384 103.384-103.384 103.384 46.284 103.384 103.384-46.284 103.384-103.384 103.384z" fill="#fe93bb"/></g><g><path d="m270.504 419.302h14.981v55.701c0 8.147-3.299 15.515-8.637 20.853s-12.716 8.637-20.853 8.637c-.27 0-.54 0-.81-.02.4-.36.79-.73 1.17-1.11 5.338-5.338 8.637-12.706 8.637-20.853v-57.696c0-3.044 2.468-5.512 5.512-5.512z" fill="#fe76a8"/></g><g><path d="m338.685 390.367c-.444 16.06-14.026 28.655-30.093 28.655h-10.462c5.458-.55 10.696-2.119 13.705-6.378 5.518-7.827 5.568-20.553-1.18-27.82-5.348-5.758-14.805-5.778-21.942-5.778h-18.21c-3.044 0-5.512-2.468-5.512-5.512v-45.348c0-4.745 3.247-8.856 7.852-9.998 4.287-1.063 8.505-2.306 12.641-3.72v45.574h23.722c16.562.001 29.939 13.66 29.479 30.325z" fill="#fe76a8"/></g><g><path d="m410.891 162.392c0 67.866-43.645 125.516-104.394 146.449 51.192-25.271 86.4-77.983 86.4-138.942 0-85.55-69.346-154.896-154.896-154.896-17.694 0-34.698 2.969-50.532 8.427 20.663-10.196 43.925-15.934 68.526-15.934 85.55 0 154.896 69.345 154.896 154.896z" fill="#fe76a8"/></g><g><path d="m164.346 113.925c-3.789-1.668-8.214.052-9.882 3.842-6.203 14.094-9.349 29.108-9.349 44.625 0 61.139 49.741 110.88 110.88 110.88s110.88-49.74 110.88-110.88c0-61.139-49.74-110.879-110.88-110.879-30.434 0-59.861 12.712-80.734 34.877-2.839 3.015-2.696 7.76.318 10.598 3.014 2.839 7.759 2.697 10.598-.318 18.317-19.45 43.112-30.162 69.817-30.162 52.871 0 95.885 43.014 95.885 95.885s-43.014 95.885-95.885 95.885-95.885-43.014-95.885-95.885c0-13.425 2.718-26.406 8.078-38.584 1.669-3.792-.051-8.216-3.841-9.884z"/><path d="m418.387 162.392c0-89.543-72.848-162.392-162.392-162.392s-162.392 72.849-162.392 162.392c0 75.615 52.372 141.151 125.403 158.148v32.004h-16.22c-20.396 0-36.99 16.593-36.99 36.99 0 20.396 16.594 36.99 36.99 36.99h16.22v48.478c0 20.396 16.593 36.99 36.99 36.99s36.99-16.593 36.99-36.99v-8.485c0-4.141-3.357-7.497-7.497-7.497-4.141 0-7.497 3.357-7.497 7.497v8.485c0 12.128-9.867 21.995-21.995 21.995s-21.995-9.867-21.995-21.995v-55.975c0-4.141-3.357-7.497-7.497-7.497h-23.718c-12.128 0-21.995-9.867-21.995-21.995s9.867-21.995 21.995-21.995h23.718c4.141 0 7.497-3.357 7.497-7.497v-45.573c0-3.593-2.549-6.682-6.078-7.362-69.141-13.331-119.325-74.193-119.325-144.717 0-81.275 66.122-147.397 147.397-147.397s147.397 66.122 147.397 147.397c0 70.524-50.183 131.386-119.325 144.717-3.529.68-6.078 3.768-6.078 7.362v45.571c0 4.141 3.357 7.497 7.497 7.497h23.718c12.128 0 21.995 9.867 21.995 21.995s-9.867 21.995-21.995 21.995h-23.718c-4.141 0-7.497 3.357-7.497 7.497v12.669c0 4.141 3.357 7.497 7.497 7.497 4.141 0 7.497-3.357 7.497-7.497v-5.172h16.22c20.396 0 36.99-16.594 36.99-36.99s-16.594-36.99-36.99-36.99h-16.22v-32.004c73.031-16.996 125.403-82.531 125.403-158.146z"/></g></g></svg>